<?xml version="1.0" encoding="UTF-8" standalone="no"?>
<svg
   xmlns:dc="http://purl.org/dc/elements/1.1/"
   xmlns:cc="http://creativecommons.org/ns#"
   xmlns:rdf="http://www.w3.org/1999/02/22-rdf-syntax-ns#"
   xmlns:svg="http://www.w3.org/2000/svg"
   xmlns="http://www.w3.org/2000/svg"
   xmlns:sodipodi="http://sodipodi.sourceforge.net/DTD/sodipodi-0.dtd"
   xmlns:inkscape="http://www.inkscape.org/namespaces/inkscape"
   width="375"
   height="375"
   viewBox="0 0 375 375"
   fill="none"
   version="1.1"
   id="svg19"
   sodipodi:docname="throbber.svg"
   inkscape:version="1.0 (4035a4fb49, 2020-05-01)">
  <metadata
     id="metadata23">
    <rdf:RDF>
      <cc:Work
         rdf:about="">
        <dc:format>image/svg+xml</dc:format>
        <dc:type
           rdf:resource="http://purl.org/dc/dcmitype/StillImage" />
      </cc:Work>
    </rdf:RDF>
  </metadata>
  <sodipodi:namedview
     inkscape:document-rotation="0"
     pagecolor="#ffffff"
     bordercolor="#666666"
     borderopacity="1"
     objecttolerance="10"
     gridtolerance="10"
     guidetolerance="10"
     inkscape:pageopacity="0"
     inkscape:pageshadow="2"
     inkscape:window-width="1920"
     inkscape:window-height="1001"
     id="namedview21"
     showgrid="false"
     inkscape:snap-page="true"
     inkscape:zoom="0.96588235"
     inkscape:cx="187.5"
     inkscape:cy="187.5"
     inkscape:window-x="2391"
     inkscape:window-y="-9"
     inkscape:window-maximized="1"
     inkscape:current-layer="svg19" />
  <rect
     style="display:none;fill:#1f1f1f;fill-opacity:1;fill-rule:evenodd;stroke-width:5.373;stroke-linecap:round;stroke-linejoin:round;paint-order:stroke markers fill"
     id="rect848"
     width="375"
     height="375"
     x="0"
     y="0" />
  <path
     d="M 202.87695 48.199219 C 200.09338 48.199219 197.57185 49.32347 195.74023 51.140625 L 194.33203 52.707031 L 116.16406 158.38672 L 92.658203 190.16602 L 91.144531 192.38281 C 89.167304 195.07134 88 198.39215 88 201.98633 C 88 210.94539 95.260815 218.20898 104.2168 218.20898 L 104.28711 218.20898 L 182.11523 218.20898 L 163.52734 313.87695 L 163.47656 314.13281 C 163.26863 314.94099 163.16016 315.78781 163.16016 316.66016 C 163.16016 322.25977 167.69693 326.80078 173.29492 326.80078 C 176.29616 326.80078 178.99249 325.49439 180.84766 323.41992 L 181.24805 322.9707 L 258.73633 218.20898 L 283.42969 184.82422 L 284.41406 183.40234 C 286.04993 180.86976 287 177.85137 287 174.61133 C 287 165.65145 279.73901 158.38672 270.7832 158.38672 L 270.14258 158.38672 L 193.73828 158.38672 L 212.62109 61.201172 L 212.9668 59.302734 C 212.9969 58.985877 213.01172 58.664499 213.01172 58.339844 C 213.01172 52.740066 208.47413 48.199219 202.87695 48.199219 z "
     style="stroke-width:6;stroke:#ffffff;stroke-opacity:1;fill:none;stroke-miterlimit:4;stroke-dasharray:none"
     id="path2" />
  <defs
     id="defs17">
    <linearGradient
       id="paint0_linear"
       x1="236"
       y1="237"
       x2="167"
       y2="359"
       gradientUnits="userSpaceOnUse"
       gradientTransform="matrix(0.8122449,0,0,0.8122449,35.204082,35.204082)">
      <stop
         stop-color="#23915F"
         id="stop12" />
      <stop
         offset="1"
         stop-color="#3ECF8E"
         stop-opacity="0"
         id="stop14" />
    </linearGradient>
  </defs>
</svg>
